<svg width="1200" height="630" viewBox="0 0 1200 630" fill="none" xmlns="http://www.w3.org/2000/svg">
  <defs>
    <linearGradient id="bg" x1="0" y1="0" x2="1200" y2="630" gradientUnits="userSpaceOnUse">
      <stop stop-color="#5A37F0"/>
      <stop offset="1" stop-color="#4A2BD0"/>
    </linearGradient>
  </defs>
  <rect width="1200" height="630" fill="url(#bg)"/>
  <circle cx="120" cy="120" r="180" fill="#C8F560" fill-opacity="0.18"/>
  <circle cx="1080" cy="540" r="220" fill="#FF6B4A" fill-opacity="0.22"/>

  <g transform="translate(90, 88)">
    <rect width="64" height="64" rx="18" fill="#6C4DFF"/>
    <g transform="translate(12,12) scale(1.0)">
      <path d="M9 25c4.4.2 7.8-1.4 11-5.2" stroke="#C8F560" stroke-width="3.1" stroke-linecap="round"/>
      <path d="M31 25c-4.4.2-7.8-1.4-11-5.2" stroke="#C8F560" stroke-width="3.1" stroke-linecap="round"/>
      <path d="M25.5 12.5c1.4-1.7 3-1.7 4.5 0" stroke="#C8F560" stroke-width="2.2" stroke-linecap="round"/>
    </g>
    <text x="84" y="44" font-family="Verdana, sans-serif" font-size="38" font-weight="bold" fill="#FDF7EF">Tern</text>
  </g>

  <text x="90" y="300" font-family="Verdana, sans-serif" font-size="78" font-weight="bold" fill="#FDF7EF">Your money, sorted</text>
  <text x="90" y="390" font-family="Verdana, sans-serif" font-size="78" font-weight="bold" fill="#C8F560">before you land.</text>

  <text x="90" y="470" font-family="Verdana, sans-serif" font-size="32" fill="#FDF7EF" fill-opacity="0.85">The neobank built for working holiday visa life.</text>

  <g transform="translate(90, 510)" font-family="Verdana, sans-serif" font-size="24" fill="#FDF7EF" fill-opacity="0.9">
    <rect x="0" y="0" width="280" height="56" rx="28" fill="#FDF7EF" fill-opacity="0.12"/>
    <text x="28" y="36">Salary day 1 · No ATM fees</text>
    <rect x="300" y="0" width="300" height="56" rx="28" fill="#FDF7EF" fill-opacity="0.12"/>
    <text x="328" y="36">Flat-fee FX swaps · Cashback</text>
  </g>
</svg>
